<svg preserveAspectRatio="none" width="100%" height="100%" overflow="visible" style="display: block;" viewBox="0 0 20 20" fill="none" xmlns="http://www.w3.org/2000/svg">
<g id="Instagram_Glyph_Black 1" clip-path="url(#clip0_0_6)">
<path id="Vector" d="M5.85839 0.0700374C4.79439 0.120237 4.06779 0.290037 3.43259 0.539637C2.77519 0.795837 2.21799 1.13964 1.66359 1.69604C1.10919 2.25244 0.76779 2.81004 0.51339 3.46844C0.26719 4.10504 0.10039 4.83224 0.0533903 5.89684C0.00639027 6.96144 -0.00400973 7.30364 0.00119027 10.0192C0.00639027 12.7348 0.0183903 13.0752 0.0699903 14.142C0.12079 15.2058 0.28999 15.9322 0.53959 16.5676C0.79619 17.225 1.13959 17.782 1.69619 18.3366C2.25279 18.8912 2.80999 19.2318 3.46999 19.4866C4.10599 19.7324 4.83339 19.9 5.89779 19.9466C6.96219 19.9932 7.30479 20.004 10.0196 19.9988C12.7344 19.9936 13.0762 19.9816 14.1428 19.931C15.2094 19.8804 15.932 19.71 16.5676 19.4616C17.225 19.2044 17.7824 18.8616 18.3366 18.3048C18.8908 17.748 19.232 17.19 19.4862 16.5312C19.7326 15.8952 19.9 15.1678 19.9462 14.1042C19.9928 13.0368 20.0038 12.696 19.9986 9.98084C19.9934 7.26564 19.9812 6.92524 19.9306 5.85884C19.88 4.79244 19.7106 4.06824 19.4612 3.43244C19.2042 2.77504 18.8612 2.21844 18.3048 1.66344C17.7484 1.10844 17.19 0.767437 16.5314 0.513837C15.895 0.267637 15.168 0.0998374 14.1036 0.0538374C13.0392 0.00783744 12.6966 -0.00396257 9.98079 0.00123743C7.26499 0.00643743 6.92499 0.0180374 5.85839 0.0700374ZM5.97519 18.1476C5.00019 18.1052 4.47079 17.9432 4.11799 17.8076C3.65079 17.6276 3.31799 17.41 2.96639 17.0618C2.61479 16.7136 2.39879 16.3796 2.21639 15.9134C2.07939 15.5606 1.91439 15.0318 1.86879 14.0568C1.81919 13.003 1.80879 12.6866 1.80299 10.0168C1.79719 7.34704 1.80739 7.03104 1.85359 5.97684C1.89519 5.00264 2.05819 4.47264 2.19359 4.12004C2.37359 3.65224 2.59039 3.32004 2.93939 2.96864C3.28839 2.61724 3.62139 2.40084 4.08799 2.21844C4.44039 2.08084 4.96919 1.91724 5.94379 1.87084C6.99839 1.82084 7.31439 1.81084 9.98379 1.80504C12.6532 1.79924 12.97 1.80924 14.025 1.85564C14.9992 1.89804 15.5294 2.05944 15.8816 2.19564C16.349 2.37564 16.6816 2.59184 17.033 2.94144C17.3844 3.29104 17.601 3.62284 17.7834 4.09044C17.9212 4.44184 18.0848 4.97044 18.1308 5.94564C18.181 7.00024 18.1924 7.31644 18.1972 9.98564C18.202 12.6548 18.1926 12.9718 18.1464 14.0256C18.1038 15.0006 17.9422 15.5302 17.8064 15.8834C17.6264 16.3504 17.4094 16.6834 17.0602 17.0346C16.711 17.3858 16.3784 17.6022 15.9116 17.7846C15.5596 17.922 15.0302 18.086 14.0564 18.1324C13.0018 18.182 12.6858 18.1924 10.0154 18.1982C7.34499 18.204 7.02999 18.1932 5.97539 18.1476M14.1274 4.65544C14.1278 4.89279 14.1986 5.1247 14.3308 5.32182C14.463 5.51895 14.6507 5.67245 14.8701 5.76289C15.0896 5.85334 15.3309 5.87668 15.5636 5.82996C15.7963 5.78323 16.0099 5.66855 16.1775 5.50041C16.345 5.33226 16.4589 5.11822 16.5048 4.88534C16.5506 4.65246 16.5264 4.4112 16.4352 4.19209C16.3439 3.97298 16.1897 3.78585 15.9921 3.65437C15.7945 3.52289 15.5623 3.45296 15.325 3.45344C15.0068 3.45407 14.7019 3.58106 14.4773 3.80646C14.2527 4.03187 14.1269 4.33725 14.1274 4.65544ZM4.86539 10.01C4.87099 12.846 7.17419 15.1398 10.0096 15.1344C12.845 15.129 15.1404 12.826 15.135 9.99004C15.1296 7.15404 12.8258 4.85964 9.98999 4.86524C7.15419 4.87084 4.85999 7.17444 4.86539 10.01ZM6.66659 10.0064C6.66529 9.34716 6.85951 8.70229 7.2247 8.15339C7.5899 7.6045 8.10966 7.17622 8.71825 6.92271C9.32685 6.66921 9.99695 6.60187 10.6438 6.72921C11.2907 6.85655 11.8853 7.17285 12.3524 7.63811C12.8195 8.10337 13.1381 8.6967 13.268 9.34306C13.3979 9.98942 13.3333 10.6598 13.0822 11.2694C12.8311 11.879 12.4049 12.4004 11.8574 12.7678C11.31 13.1352 10.6659 13.3319 10.0066 13.3332C9.56883 13.3342 9.13517 13.2488 8.73039 13.0821C8.32561 12.9154 7.95763 12.6706 7.64747 12.3617C7.33731 12.0528 7.09105 11.6858 6.92275 11.2816C6.75445 10.8775 6.6674 10.4442 6.66659 10.0064Z" fill="var(--fill-0, #816C61)"/>
</g>
<defs>
<clipPath id="clip0_0_6">
<rect width="20" height="20" fill="white"/>
</clipPath>
</defs>
</svg>
