<svg preserveAspectRatio="none" width="100%" height="100%" overflow="visible" style="display: block;" viewBox="0 0 40 40" fill="none" xmlns="http://www.w3.org/2000/svg">
<g id="Button">
<rect width="40" height="40" rx="20" fill="var(--fill-0, #F4EFE3)"/>
<path id="Vector" fill-rule="evenodd" clip-rule="evenodd" d="M28 28H24.7125V22.4007C24.7125 20.8655 24.1292 20.0075 22.9141 20.0075C21.5922 20.0075 20.9016 20.9003 20.9016 22.4007V28H17.7333V17.3333H20.9016V18.7701C20.9016 18.7701 21.8542 17.0075 24.1177 17.0075C26.3802 17.0075 28 18.3891 28 21.2465V28ZM13.9536 15.9366C12.8745 15.9366 12 15.0553 12 13.9683C12 12.8813 12.8745 12 13.9536 12C15.0328 12 15.9068 12.8813 15.9068 13.9683C15.9068 15.0553 15.0328 15.9366 13.9536 15.9366ZM12.3177 28H15.6214V17.3333H12.3177V28Z" fill="var(--fill-0, #816C61)"/>
</g>
</svg>
